<svg id="visual" viewBox="0 0 900 600" width="900" height="600" xmlns="http://www.w3.org/2000/svg" xmlns:xlink="http://www.w3.org/1999/xlink" version="1.1"><path d="M0 513L11.5 512.8C23 512.7 46 512.3 69 506.5C92 500.7 115 489.3 138.2 481.3C161.3 473.3 184.7 468.7 207.8 473.5C231 478.3 254 492.7 277 498.3C300 504 323 501 346 505.5C369 510 392 522 415.2 529.8C438.3 537.7 461.7 541.3 484.8 533.2C508 525 531 505 554 500C577 495 600 505 623 505.3C646 505.7 669 496.3 692.2 495.5C715.3 494.7 738.7 502.3 761.8 501.7C785 501 808 492 831 486.8C854 481.7 877 480.3 888.5 479.7L900 479L900 601L888.5 601C877 601 854 601 831 601C808 601 785 601 761.8 601C738.7 601 715.3 601 692.2 601C669 601 646 601 623 601C600 601 577 601 554 601C531 601 508 601 484.8 601C461.7 601 438.3 601 415.2 601C392 601 369 601 346 601C323 601 300 601 277 601C254 601 231 601 207.8 601C184.7 601 161.3 601 138.2 601C115 601 92 601 69 601C46 601 23 601 11.5 601L0 601Z" fill="#0066FF" stroke-linecap="round" stroke-linejoin="miter"></path></svg>